<svg width="125" height="19" viewBox="0 0 125 19" fill="none" xmlns="http://www.w3.org/2000/svg">
<path d="M20.016 15.6H22.584V16.68H12.84V15.6H14.736L9.528 9.47999L3.96 15.6H5.832V16.68H7.37607e-07V15.6H2.4L8.808 8.66399L2.352 1.07999H0.168001V-8.58307e-06H9.912V1.07999H7.608L12.744 7.10399L18.144 1.07999H16.488V-8.58307e-06H22.344V1.07999H19.68L13.44 7.91999L20.016 15.6ZM18.6 15.6L6.192 1.07999H3.768L16.176 15.6H18.6ZM41.5939 19.008H24.4819V17.928H41.5939V19.008ZM58.668 13.752H59.748V16.68H44.772V5.42399H59.748V8.35199H58.668V6.50399H48.78V15.6H58.668V13.752ZM47.7 6.50399H45.852V15.6H47.7V6.50399ZM77.2296 15.6H79.6056V16.68H62.2536V10.512H73.2216V6.50399H63.3336V8.35199H62.2536V5.42399H77.2296V15.6ZM73.2216 15.6V11.592H63.3336V15.6H73.2216ZM76.1496 6.50399H74.3016V15.6H76.1496V6.50399ZM96.5762 5.42399V16.68H81.2642V1.07999H78.8882V-8.58307e-06H85.2722V5.42399H96.5762ZM84.1922 1.07999H82.3442V15.6H84.1922V1.07999ZM95.4962 15.6V6.50399H85.2722V15.6H95.4962ZM104.876 15.6H107.252V16.68H98.4917V15.6H100.868V1.07999H98.4917V-8.58307e-06H104.876V15.6ZM103.796 1.07999H101.948V15.6H103.796V1.07999ZM109.178 5.42399H124.154V11.592H113.186V15.6H123.074V13.752H124.154V16.68H109.178V5.42399ZM113.186 6.50399V10.512H123.074V6.50399H113.186ZM110.258 15.6H112.106V6.50399H110.258V15.6Z" fill="black"/>
</svg>
